<svg xmlns="http://www.w3.org/2000/svg" xmlns:xlink="http://www.w3.org/1999/xlink" width="48" zoomAndPan="magnify" viewBox="0 0 36 36.000001" height="48" preserveAspectRatio="xMidYMid meet" version="1.0"><defs><clipPath id="id1"><path d="M 2.097656 12.074219 L 25.449219 12.074219 L 25.449219 31.777344 L 2.097656 31.777344 Z M 2.097656 12.074219 " clip-rule="nonzero"/></clipPath><clipPath id="id2"><path d="M 10.117188 7.742188 L 32.613281 7.742188 L 32.613281 26.714844 L 10.117188 26.714844 Z M 10.117188 7.742188 " clip-rule="nonzero"/></clipPath><clipPath id="id3"><path d="M 15.089844 10 L 27 10 L 27 20.613281 L 15.089844 20.613281 Z M 15.089844 10 " clip-rule="nonzero"/></clipPath></defs><g clip-path="url(#id1)"><path stroke-linecap="round" transform="matrix(0.0464031, 0, 0, 0.0473964, 2.101687, 12.073425)" fill-opacity="1" fill="rgb(100%, 100%, 100%)" fill-rule="nonzero" stroke-linejoin="round" d="M 436.222552 2.489248 L 66.752746 2.489248 C 58.250479 2.489248 50.000755 4.137578 42.171934 7.351823 C 34.258933 10.648484 27.356102 15.263809 21.29508 21.280215 C 15.318239 27.379038 10.688292 34.302026 7.405238 42.131595 C 4.122184 50.043582 2.522748 58.202817 2.522748 66.774136 L 2.522748 265.315539 C 2.522748 273.886858 4.122184 282.046093 7.405238 289.95808 C 10.688292 297.787649 15.318239 304.710637 21.29508 310.727043 C 27.356102 316.825866 34.258933 321.441191 42.171934 324.655436 C 50.000755 327.952097 58.250479 329.600427 66.752746 329.600427 L 89.649941 329.600427 C 75.591737 361.330788 44.781541 402.786299 10.183207 413.005948 C 75.002471 402.2918 148.744906 378.473425 173.325718 329.600427 L 436.222552 329.600427 C 444.809 329.600427 452.974544 327.952097 460.803364 324.655436 C 468.716365 321.441191 475.619196 316.825866 481.680218 310.727043 C 487.74124 304.710637 492.371188 297.787649 495.57006 289.95808 C 498.853114 282.046093 500.536731 273.886858 500.536731 265.315539 L 500.536731 66.774136 C 500.536731 58.202817 498.853114 50.043582 495.57006 42.131595 C 492.371188 34.302026 487.74124 27.379038 481.680218 21.280215 C 475.619196 15.263809 468.716365 10.648484 460.803364 7.351823 C 452.974544 4.137578 444.809 2.489248 436.222552 2.489248 Z M 436.222552 2.489248 " stroke="rgb(10.198975%, 10.198975%, 10.198975%)" stroke-width="5" stroke-opacity="1" stroke-miterlimit="4"/></g><g clip-path="url(#id2)"><path stroke-linecap="round" transform="matrix(-0.0449529, 0, 0, 0.045641, 32.73207, 7.742443)" fill-opacity="1" fill="rgb(100%, 100%, 100%)" fill-rule="nonzero" stroke-linejoin="round" d="M 436.255804 2.476404 L 66.772096 2.476404 C 58.256244 2.476404 50.001081 4.102545 42.180401 7.354828 C 34.272824 10.692697 27.321108 15.314362 21.325253 21.305409 C 15.329397 27.382042 10.636989 34.314539 7.42182 42.188486 C 4.119755 50.062434 2.468723 58.19314 2.468723 66.751779 L 2.468723 265.312191 C 2.468723 273.87083 4.119755 282.087123 7.42182 289.96107 C 10.636989 297.749431 15.329397 304.767515 21.325253 310.758562 C 27.321108 316.749609 34.272824 321.45686 42.180401 324.709142 C 50.001081 327.961425 58.256244 329.587566 66.772096 329.587566 L 89.712759 329.587566 C 75.635534 361.340115 44.787294 402.763925 10.202507 413.034291 C 75.027259 402.250407 148.715449 378.457392 173.307145 329.587566 L 436.255804 329.587566 C 444.771657 329.587566 452.939923 327.961425 460.8475 324.709142 C 468.66818 321.45686 475.619897 316.749609 481.702648 310.758562 C 487.698503 304.767515 492.390911 297.749431 495.60608 289.96107 C 498.908145 282.087123 500.472281 273.87083 500.472281 265.312191 L 500.472281 66.751779 C 500.472281 58.19314 498.908145 50.062434 495.60608 42.188486 C 492.390911 34.314539 487.698503 27.382042 481.702648 21.305409 C 475.619897 15.314362 468.66818 10.692697 460.8475 7.354828 C 452.939923 4.102545 444.771657 2.476404 436.255804 2.476404 Z M 436.255804 2.476404 " stroke="rgb(10.198975%, 10.198975%, 10.198975%)" stroke-width="5" stroke-opacity="1" stroke-miterlimit="4"/></g><g clip-path="url(#id3)"><path fill="rgb(77.648926%, 18.818665%, 17.248535%)" d="M 26.921875 12.992188 C 26.28125 9.738281 22.28125 9.683594 21.296875 12.726562 C 20.308594 9.683594 16.3125 9.738281 15.671875 12.992188 C 15.09375 15.945312 21.296875 20.601562 21.296875 20.601562 C 21.296875 20.601562 27.5 15.945312 26.921875 12.992188 Z M 26.921875 12.992188 " fill-opacity="1" fill-rule="nonzero"/></g></svg>